<?xml version="1.0" encoding="utf-8"?>
<!-- Generator: Adobe Illustrator 22.1.0, SVG Export Plug-In . SVG Version: 6.00 Build 0)  -->
<svg version="1.1"
	 id="svg2" inkscape:version="0.91 r13725" sodipodi:docname="Newsday.svg" xmlns:cc="http://creativecommons.org/ns#" xmlns:dc="http://purl.org/dc/elements/1.1/" xmlns:inkscape="http://www.inkscape.org/namespaces/inkscape" xmlns:rdf="http://www.w3.org/1999/02/22-rdf-syntax-ns#" xmlns:sodipodi="http://sodipodi.sourceforge.net/DTD/sodipodi-0.dtd" xmlns:svg="http://www.w3.org/2000/svg"
	 xmlns="http://www.w3.org/2000/svg" xmlns:xlink="http://www.w3.org/1999/xlink" x="0px" y="0px" viewBox="0 0 80 12"
	 style="enable-background:new 0 0 80 12;" xml:space="preserve">
<style type="text/css">
	.st0{fill:#FFFFFF;}
	.st1{fill:#ED1834;}
</style>
<g id="layer1" transform="translate(275.77295,2207.6391)" inkscape:groupmode="layer" inkscape:label="Layer 1">
	<path id="path44456" inkscape:connector-curvature="0" class="st0" d="M-262.5-2206.9v4.6l-3.3-4.6h-3.4v8.7h3v-4.7l3.5,4.7h3.2
		v-8.7H-262.5z"/>
	<path id="path44484" inkscape:connector-curvature="0" class="st0" d="M-253.1-2202.4c-0.2-0.2-0.7-0.4-1.3-0.4
		c-0.6,0-1.1,0.2-1.3,0.4c-0.2,0.2-0.3,0.4-0.3,0.5h3.1C-252.9-2202-253-2202.2-253.1-2202.4 M-250.8-2199.1c-0.7,0.7-1.9,1-3.7,1
		s-3.1-0.4-3.8-1.2c-0.4-0.5-0.7-1.1-0.7-1.9c0-0.7,0.2-1.4,0.7-1.9c0.8-0.8,2-1.3,3.8-1.3c2.2,0,3.5,0.8,4.1,1.9
		c0.3,0.5,0.4,1.2,0.3,1.9h-6c0,0.2,0.1,0.4,0.2,0.6c0.2,0.3,0.7,0.4,1.4,0.4c0.5,0,0.9-0.1,1.1-0.2c0.2-0.1,0.3-0.2,0.4-0.4h2.9
		C-250.2-2199.9-250.4-2199.5-250.8-2199.1"/>
	<path id="path44488" inkscape:connector-curvature="0" class="st0" d="M-239.1-2198.2h-3.3c0,0-1-2.6-1.1-2.9
		c0-0.1-0.1-0.7-0.1-0.7s-0.1,0.6-0.1,0.7c0,0.3-1,2.9-1,2.9h-3.4l-2.5-6.1h3l1.3,3.9l1.2-3.9h3.2l1.2,3.9l1.2-3.9h2.9
		C-236.6-2204.3-239.1-2198.2-239.1-2198.2z"/>
	<path id="path44492" inkscape:connector-curvature="0" class="st0" d="M-232.8-2198.1c-2.7,0-3.9-0.5-4.3-1.6
		c-0.1-0.2-0.1-0.4-0.1-0.6h2.9c0,0.1,0,0.2,0.1,0.3c0.1,0.2,0.5,0.3,1.4,0.3c0.8,0,1.1-0.1,1.1-0.4c0-0.2-0.3-0.3-1.2-0.4
		c-0.3,0-1.4-0.2-1.8-0.2c-1.6-0.2-2.4-0.7-2.4-1.8c0-1.2,1.3-1.9,3.8-1.9c2.2,0,3.6,0.5,4,1.4c0.1,0.2,0.2,0.6,0.1,0.7h-2.8
		c0-0.1-0.1-0.2-0.1-0.3c-0.1-0.1-0.4-0.2-1.1-0.2c-0.9,0-1.1,0.1-1.1,0.3c0,0.2,0.1,0.3,0.9,0.4c0.3,0,1.6,0.2,1.9,0.3
		c1.7,0.2,2.5,0.7,2.5,1.8C-228.8-2198.8-230.1-2198.1-232.8-2198.1"/>
	<path id="path44496" inkscape:connector-curvature="0" class="st0" d="M-225.5-2202.2c-0.2,0.2-0.3,0.6-0.3,0.9
		c0,0.3,0.1,0.7,0.3,0.9c0.2,0.3,0.6,0.5,1.3,0.5c0.6,0,1-0.2,1.3-0.4c0.2-0.2,0.4-0.6,0.4-1c0-0.4-0.1-0.8-0.4-1
		c-0.2-0.2-0.6-0.4-1.2-0.4C-224.8-2202.6-225.3-2202.4-225.5-2202.2 M-222.7-2203.7v-3.3h2.9v7.8c0,0.4,0.1,0.9,0.1,0.9h-2.7
		l-0.2-0.8c-0.3,0.5-1.3,0.9-2.6,0.9c-1.3,0-2.3-0.4-2.9-1.1c-0.5-0.5-0.7-1.2-0.7-2c0-0.8,0.2-1.5,0.7-2c0.6-0.7,1.7-1.2,3-1.2
		C-224.1-2204.4-223.1-2204.2-222.7-2203.7"/>
	<path id="path44500" inkscape:connector-curvature="0" class="st0" d="M-214.9-2200.8c-1,0-1.5,0.3-1.5,0.7c0,0.3,0.3,0.4,1,0.4
		c0.7,0,1.5-0.2,1.7-1C-214-2200.7-214.2-2200.8-214.9-2200.8 M-213.5-2198.2c-0.1,0-0.1-0.3-0.1-0.5c-0.5,0.4-1.5,0.6-2.9,0.6
		c-1.6,0-2.7-0.5-2.8-1.5c0-0.1,0-0.3,0-0.5c0.1-1,1.3-1.8,3.9-1.8c0.6,0,1.2,0,1.8,0.1c0-0.2,0-0.3-0.1-0.4
		c-0.1-0.3-0.5-0.4-1.1-0.4c-0.5,0-0.8,0.1-1,0.2c-0.2,0.1-0.3,0.3-0.3,0.4h-2.8c0-0.3,0.1-0.7,0.3-1c0.7-1,2-1.3,3.9-1.3
		c2.3,0,3.6,0.7,3.8,1.7c0.1,0.3,0.1,1,0.1,1.5c0,0.4,0,1,0,1.6c0,0.6,0,1.3,0.2,1.4H-213.5L-213.5-2198.2z"/>
	<path id="path44504" inkscape:connector-curvature="0" class="st0" d="M-205.9-2196.3h-3.1l1-1.8l-3.2-6.1h3.1
		c0,0.1,1.7,3.6,1.7,3.7c0-0.1,1.6-3.6,1.6-3.7h3.1L-205.9-2196.3L-205.9-2196.3z"/>
	<path id="path44508" inkscape:connector-curvature="0" class="st1" d="M-271-2198.2c-1.1-0.7-0.4-1.5,1.5-2.2l-0.7-0.2
		c-2.6,0.8-3.6,1.7-2.4,2.5c1.8,1.2,8.3,1.7,14.9,1.2C-263.8-2196.6-269.3-2197.1-271-2198.2"/>
</g>
</svg>
